<svg width="10" height="10" viewBox="0 0 10 10" fill="none" xmlns="http://www.w3.org/2000/svg">
<path d="M2.08331 6.56248C1.91248 6.56248 1.77081 6.42081 1.77081 6.24998V3.33331C1.77081 3.16248 1.91248 3.02081 2.08331 3.02081C2.25415 3.02081 2.39581 3.16248 2.39581 3.33331V6.24998C2.39581 6.42081 2.25415 6.56248 2.08331 6.56248Z" fill="#5E6278"/>
<path d="M2.18748 9.47915C1.26665 9.47915 0.520813 8.73331 0.520813 7.81248C0.520813 6.89165 1.26665 6.14581 2.18748 6.14581C3.10831 6.14581 3.85415 6.89165 3.85415 7.81248C3.85415 8.73331 3.10831 9.47915 2.18748 9.47915ZM2.18748 6.77081C1.61248 6.77081 1.14581 7.23748 1.14581 7.81248C1.14581 8.38748 1.61248 8.85415 2.18748 8.85415C2.76248 8.85415 3.22915 8.38748 3.22915 7.81248C3.22915 7.23748 2.76248 6.77081 2.18748 6.77081Z" fill="#5E6278"/>
<path d="M2.08331 3.64581C1.22081 3.64581 0.520813 2.94581 0.520813 2.08331C0.520813 1.22081 1.22081 0.520813 2.08331 0.520813C2.94581 0.520813 3.64581 1.22081 3.64581 2.08331C3.64581 2.94581 2.94581 3.64581 2.08331 3.64581ZM2.08331 1.14581C1.56665 1.14581 1.14581 1.56665 1.14581 2.08331C1.14581 2.59998 1.56665 3.02081 2.08331 3.02081C2.59998 3.02081 3.02081 2.59998 3.02081 2.08331C3.02081 1.56665 2.59998 1.14581 2.08331 1.14581Z" fill="#5E6278"/>
<path d="M7.91669 3.64581C7.05419 3.64581 6.35419 2.94581 6.35419 2.08331C6.35419 1.22081 7.05419 0.520813 7.91669 0.520813C8.77919 0.520813 9.47919 1.22081 9.47919 2.08331C9.47919 2.94581 8.77919 3.64581 7.91669 3.64581ZM7.91669 1.14581C7.40002 1.14581 6.97919 1.56665 6.97919 2.08331C6.97919 2.59998 7.40002 3.02081 7.91669 3.02081C8.43335 3.02081 8.85419 2.59998 8.85419 2.08331C8.85419 1.56665 8.43335 1.14581 7.91669 1.14581Z" fill="#5E6278"/>
<path d="M2.13752 6.56251C2.11252 6.56251 2.08752 6.55834 2.05836 6.55418C1.89169 6.51251 1.79169 6.34168 1.83336 6.17501C2.06253 5.29168 2.85836 4.67501 3.77086 4.67501C3.77502 4.67501 3.77502 4.67501 3.77919 4.67501L5.20836 4.67918C5.21252 4.67918 5.21252 4.67918 5.21669 4.67918C6.14169 4.67918 6.97086 4.09167 7.27502 3.21667C7.33336 3.05417 7.50836 2.96668 7.67086 3.02501C7.83336 3.08334 7.92086 3.25834 7.86252 3.42084C7.47086 4.55 6.39169 5.29168 5.20419 5.30418L3.77503 5.30001H3.77086C3.14169 5.30001 2.59586 5.72501 2.43752 6.33334C2.40419 6.47084 2.27502 6.56251 2.13752 6.56251Z" fill="#5E6278"/>
</svg>
