<svg width="24" height="24" viewBox="0 0 24 24" fill="none" xmlns="http://www.w3.org/2000/svg">
<path d="M14.7782 7.53555L7.70711 14.6066C7.31658 14.9971 7.31658 15.6303 7.70711 16.0208C8.09763 16.4114 8.7308 16.4114 9.12132 16.0208L16.1924 8.94976C16.5829 8.55924 16.5829 7.92607 16.1924 7.53555C15.8019 7.14502 15.1687 7.14502 14.7782 7.53555Z" fill="#5E6278"/>
<path d="M16.1925 14.7782L9.12141 7.70711C8.73089 7.31658 8.09772 7.31658 7.7072 7.70711C7.31668 8.09763 7.31668 8.7308 7.7072 9.12132L14.7783 16.1924C15.1688 16.5829 15.802 16.5829 16.1925 16.1924C16.583 15.8019 16.583 15.1687 16.1925 14.7782Z" fill="#5E6278"/>
</svg>
